<svg xmlns="http://www.w3.org/2000/svg" xmlns:xlink="http://www.w3.org/1999/xlink" width="35" height="46" viewBox="0 0 35 46"><defs><path id="1wtsa" d="M1116.73 1787.27c0 .4-.32.73-.73.73h-32.27a.73.73 0 1 1 0-1.47h5.87v-11.73h-1.47a.73.73 0 0 1-.59-1.17l8.07-11c.14-.19.36-.3.59-.3v-4.4h-.73a.74.74 0 0 1-.66-1.06l2.93-5.86c.13-.25.38-.41.66-.41h.73v-2.93h-1.46a.73.73 0 1 1 0-1.47h1.46v-1.47a.73.73 0 1 1 1.47 0v1.47h1.47a.73.73 0 1 1 0 1.47h-1.47v2.93h.73c.28 0 .54.16.66.4l2.93 5.87a.73.73 0 0 1-.65 1.06h-.74v4.4c.23 0 .44.1.58.28l8.8 11a.73.73 0 0 1-.58 1.19h-1.46v11.73h5.13c.4 0 .73.33.73.74zm-20.08-30.8h6.43l-2.2-4.4h-2.03zm1.02 5.86h4.4v-4.4h-4.4zm-8.09 11h21.23l-7.63-9.53h-6.6zm13.22 8.44a2.57 2.57 0 0 0-5.13 0v4.76h5.13zm6.6 4.76v-11.73h-18.33v11.73h5.13v-4.76a4.04 4.04 0 0 1 8.07 0v4.76z"/></defs><g><g transform="translate(-1082 -1743)"><use fill="#4085d3" xlink:href="#1wtsa"/><use fill="#fff" fill-opacity="0" stroke="#4085d3" stroke-miterlimit="50" stroke-width=".4" xlink:href="#1wtsa"/></g></g></svg>