<svg xmlns="http://www.w3.org/2000/svg" xmlns:xlink="http://www.w3.org/1999/xlink" width="64" height="64" viewBox="0 0 64 64"><defs><path id="6wmca" d="M930 1755a20 20 0 1 1 40 0 20 20 0 0 1-40 0z"/><path id="6wmcb" d="M922 1737c0-1.1.9-2 2-2h52a2 2 0 0 1 2 2v36a2 2 0 0 1-2 2h-52a2 2 0 0 1-2-2z"/><path id="6wmcc" d="M941.32 1763.77V1748h8.13l-6.11 11h12.01v4.77zm14.03-15.77v8.63l-4.79-8.63zm1.32 11l-1.32-2.37v2.37zm-6.67-12l-.55 1h1.11z"/><path id="6wmcd" d="M941.32 1762v-15.77h2.57l6.11 11 5.35-9.63v14.4zm14.03-15.77v1.37l1.32-2.37h-13.33l.55 1z"/><path id="6wmcj" d="M922 1743v-8h56v8z"/><path id="6wmck" d="M922 1775v-8h56v8z"/><path id="6wmcl" d="M943.34 1759l6.66-12 6.67 12z"/><path id="6wmcn" d="M943.34 1745.23l6.66 12 6.67-12z"/><mask id="6wmcf" width="2" height="2" x="-1" y="-1"><path fill="#fff" d="M930 1735h40v40h-40z"/><use xlink:href="#6wmca"/></mask><filter id="6wmce" width="84" height="88" x="908" y="1725" filterUnits="userSpaceOnUse"><feOffset dy="4" in="SourceGraphic" result="FeOffset1081Out"/><feGaussianBlur in="FeOffset1081Out" result="FeGaussianBlur1082Out" stdDeviation="4.8 4.8"/></filter><clipPath id="6wmch"><use fill="#fff" xlink:href="#6wmcb"/></clipPath><clipPath id="6wmcm"><use fill="#fff" xlink:href="#6wmcc"/></clipPath><clipPath id="6wmco"><use fill="#fff" xlink:href="#6wmcd"/></clipPath><clipPath id="6wmcg"><use xlink:href="#6wmca"/></clipPath><clipPath id="6wmci"><use xlink:href="#6wmcb"/></clipPath></defs><g><g transform="translate(-918 -1727)"><g><g filter="url(#6wmce)"><use fill="none" stroke-opacity=".3" stroke-width="0" mask="url(&quot;#6wmcf&quot;)" xlink:href="#6wmca"/><use fill-opacity=".3" xlink:href="#6wmca"/></g><use fill="#d8d8d8" xlink:href="#6wmca"/></g><g clip-path="url(#6wmcg)"><g><use fill="#fff" xlink:href="#6wmcb"/><use fill="#fff" fill-opacity="0" stroke="#f5f5f5" stroke-miterlimit="50" clip-path="url(&quot;#6wmch&quot;)" xlink:href="#6wmcb"/></g><g clip-path="url(#6wmci)"><use fill="#0e46d4" xlink:href="#6wmcj"/></g><g clip-path="url(#6wmci)"><use fill="#0e46d4" xlink:href="#6wmck"/></g><g clip-path="url(#6wmci)"><use fill="#fff" fill-opacity="0" stroke="#093ec5" stroke-miterlimit="50" stroke-width="1.33" clip-path="url(&quot;#6wmcm&quot;)" xlink:href="#6wmcl"/></g><g clip-path="url(#6wmci)"><use fill="#fff" fill-opacity="0" stroke="#093ec5" stroke-miterlimit="50" stroke-width="1.33" clip-path="url(&quot;#6wmco&quot;)" xlink:href="#6wmcn"/></g></g></g></g></svg>